<svg xmlns="http://www.w3.org/2000/svg" width="51" height="46.875" viewBox="0 0 51 46.875"  >
  <g id="Group_8565" data-name="Group 8565" transform="translate(977.292 -4689)">
    <path id="Path_22296" data-name="Path 22296" d="M214.327,186.242a6.517,6.517,0,0,0-4.507-3.176,5.85,5.85,0,0,0-5.537-4.078,5.763,5.763,0,0,0-3.434,1.116,8.137,8.137,0,0,0-15.668,2.447,6.339,6.339,0,0,0-4.936,6.181v.258a6.366,6.366,0,0,0,6.353,6.353h22.235a6.344,6.344,0,0,0,6.353-6.1v-.086a6.049,6.049,0,0,0-.859-2.919Z" transform="translate(-1148.689 4527.139)" fill="#fff"/>
    <path id="Path_22297" data-name="Path 22297" d="M91.8,185.158l2.79-2.876,2.618,2.661-1.459-3.52,2.962-1.889-3.391.515-.816-3.734-.6,3.777-3.777-.472,3.348,1.8Z" transform="translate(-1067.422 4525.948)" fill="#fff"/>
    <path id="Path_22298" data-name="Path 22298" d="M253.56,44.817l-.816-3.692-.558,3.692-3.692-.429,3.262,1.76L250.169,49.8l2.7-2.79,2.49,2.533-1.374-3.391,2.876-1.846Z" transform="translate(-1210.247 4647.875)" fill="#fff"/>
    <path id="Path_22299" data-name="Path 22299" d="M525.524,98.875l-.6,3.949-3.863-.429,3.434,1.8-1.717,3.82,2.876-2.962,2.575,2.661-1.417-3.52,2.962-1.932-3.391.558Z" transform="translate(-1456.066 4595.791)" fill="#fff"/>
    <path id="Path_22300" data-name="Path 22300" d="M268.656,411.922a1.137,1.137,0,0,0,1.073-.644,1.284,1.284,0,0,0,0-1.245l-1.073-1.846-1.073,1.889a1.284,1.284,0,0,0,0,1.245A1.224,1.224,0,0,0,268.656,411.922Z" transform="translate(-1227.317 4316.826)" fill="#fff"/>
    <path id="Path_22301" data-name="Path 22301" d="M450.215,408.19l-1.073,1.889a1.284,1.284,0,0,0,0,1.245,1.265,1.265,0,0,0,1.073.644,1.18,1.18,0,0,0,1.073-.644,1.284,1.284,0,0,0,0-1.245Z" transform="translate(-1391.061 4316.825)" fill="#fff"/>
    <path id="Path_22302" data-name="Path 22302" d="M359.216,484.157a1.137,1.137,0,0,0,1.073-.644,1.283,1.283,0,0,0,0-1.245l-1.073-1.889-1.073,1.889a1.284,1.284,0,0,0,0,1.245A1.18,1.18,0,0,0,359.216,484.157Z" transform="translate(-1308.991 4251.718)" fill="#fff"/>
  </g>
</svg>
