<svg xmlns="http://www.w3.org/2000/svg" width="50.996" height="52.593" viewBox="0 0 50.996 52.593">
  <path id="Path_22304" data-name="Path 22304" d="M172.491,91.026v.033H145.969a6.469,6.469,0,1,1,1.32-12.8,11.629,11.629,0,0,1,22.448-3.74,8.4,8.4,0,1,1,2.753,16.509ZM150.267,60.791a10.975,10.975,0,0,1,7.642,5.092,12.926,12.926,0,0,0-11.782,10.955c-.054,0-.1-.008-.158-.008a7.736,7.736,0,0,0-5.491,2.277,10.982,10.982,0,0,1,9.79-18.315Zm9.114,5.065A12.28,12.28,0,1,0,139.647,80.1a7.729,7.729,0,0,0-1.031,2.021c-1.963.382-4.963,2.028-5.749.946-1.022-1.406,3.607-4.99,3.01-6.539-.616-1.6-6.442-1.171-6.617-2.839-.176-1.692,5.621-2.486,5.885-4.155.261-1.651-5.016-4.177-4.338-5.717s6.1.64,7.192-.708c1.044-1.288-2.254-6.124-.85-7.145s4.99,3.607,6.538,3.011c1.6-.616,1.17-6.443,2.837-6.617s2.449,5.62,4.1,5.876c1.687.262,4.249-5.005,5.821-4.308,1.532.68-.675,6.09.658,7.17,1.289,1.044,6.127-2.254,7.147-.849.88,1.211-2.528,4.077-3.024,5.8a12.8,12.8,0,0,0-1.846-.2ZM151.168,92.05,149.789,95.7l2.249.6-4.8,5.411,1.379-3.649-2.25-.6Zm9.7,3.234-1.38,3.649,2.249.6-4.8,5.411,1.379-3.649-2.249-.6Zm9.7-3.234-1.38,3.649,2.249.6-4.8,5.411,1.38-3.649-2.249-.6Z" transform="translate(-129.256 -52.354)" fill="#fff" fill-rule="evenodd"/>
</svg>
