<svg xmlns="http://www.w3.org/2000/svg" width="44.467" height="44.033" viewBox="0 0 44.467 44.033">
  <path id="Path_22345" data-name="Path 22345" d="M201.8,117.772c2.244,1.985,1.726,8.8-2.244,8.287-2.331-.345-1.036-3.28-.345-4.488a41.694,41.694,0,0,1,2.59-3.8Zm-13.121,9.84c1.036-5.265-2.59-6.56-4.057-5.093a2.107,2.107,0,0,0,.6,3.28,7.128,7.128,0,0,0,1.9.691,19.087,19.087,0,0,1,1.64,1.036Zm26.412,0c.345-.086.95-.691,1.467-.95a16.822,16.822,0,0,0,1.9-.691c3.452-1.985-.691-5.956-2.762-2.935a5.991,5.991,0,0,0-.6,4.575Zm-.259,9.495c1.295-.6,1.122-1.036,2.935-1.295,1.295-.173,2.676,0,3.884-.518,2.158-.95,3.193-3.8,1.381-5.611-1.726-1.726-4.747-.95-6.128.69a11,11,0,0,0-2.158,6.733Zm-25.981,0c.431-6.56-5.265-10.444-8.2-7.423a3.4,3.4,0,0,0,1.295,5.524,14.6,14.6,0,0,0,3.884.6c1.985.173,1.726.6,3.107,1.295Zm26.412,6.905a22.113,22.113,0,0,0-2.848-1.381c-1.122-.431-1.9.431-3.021.863a23.276,23.276,0,0,1-14.933,0c-3.539-1.295-1.381-1.467-5.869.518,4.661,5.783,22.01,5.7,26.758,0Zm.863-3.884c.95,1.209,4.057,1.812,4.23,4.4.431,6.042-20.975,10.962-32.8,4.575-9.149-4.92-.345-8.114.086-8.977-3.971-3.452-12.947,4.143-4.143,10.617,9.063,6.646,27.88,6.733,36.944,0,8.114-5.956,1.209-13.9-4.23-10.617Zm-14.156-28.4c-3.539,4.057-8.718,12.947-9.149,15.105-2.331,6.819,1.295,14.07,8.89,14.242,7.423.086,11.566-6.905,9.408-13.811a35.982,35.982,0,0,0-4.143-8.114c-.69-1.122-4.316-6.905-5.006-7.423Z" transform="translate(-179.691 -111.728)" fill="#fff" fill-rule="evenodd"/>
</svg>
