<svg xmlns="http://www.w3.org/2000/svg" width="36.817" height="51.977" viewBox="0 0 36.817 51.977">
  <path id="Path_22346" data-name="Path 22346" d="M187.511,11.2a13.37,13.37,0,0,0-2.033,4.594,1.938,1.938,0,0,0,1.009,2.227c1.121.385,1.693-.434,1.894-1.392.3-1.437-1.47-2.556-.869-5.43Zm-9.235,1.748a6.062,6.062,0,0,1,2.1,2.258,36.329,36.329,0,0,1,2.375,5.089c1.122,2.451,1.661,5.211,3.027,7.332.472.542.808.355,1.148-.046l.357-3.264,1.242,1.547c.714.481,1.166-.355,1.412-.9a8.744,8.744,0,0,0,.372-1.872,28.77,28.77,0,0,1,2.732,6.915,36.562,36.562,0,0,1,1.335,8.415,12.76,12.76,0,0,1-4.625,10.179,19.084,19.084,0,0,1-22.537,0,12.758,12.758,0,0,1-4.625-10.179c0-3.751,2.314-10.069,5.308-14.618.308,1.082.683,2.4.683,2.4a.52.52,0,0,0,.73.263l1.956-1.16.792,2.382a.524.524,0,0,0,.823.186c1.843-2.64,2.743-5.781,3.648-8.693.639-2.062,1.216-4.143,1.754-6.234Zm-7.388,2.8c.6,2.874-1.17,3.993-.869,5.43.2.958.773,1.793,1.894,1.408a1.938,1.938,0,0,0,1.009-2.227,13.447,13.447,0,0,0-2.033-4.61Zm24.151,6.435c.4,2.053-.79,2.856-.59,3.883.134.684.525,1.265,1.273.99a1.4,1.4,0,0,0,.667-1.578,9.953,9.953,0,0,0-1.351-3.295Zm-33.992,1.98a9.968,9.968,0,0,0-1.351,3.3,1.4,1.4,0,0,0,.667,1.578c.747.275,1.124-.306,1.257-.99.2-1.026-.975-1.83-.574-3.883ZM177.5,29.906a27.988,27.988,0,0,1-2.049,6.141,3.555,3.555,0,0,1-.947,1.16,15.338,15.338,0,0,1-1.987-2.32.524.524,0,0,0-.792-.325c-2.188,1.636-3.678,5.228-3.678,9.312A3.3,3.3,0,0,0,169.2,46.21a9.065,9.065,0,0,0,2.623,1.655,15.97,15.97,0,0,0,13.317,0,9.062,9.062,0,0,0,2.623-1.655,3.3,3.3,0,0,0,1.148-2.336,16.77,16.77,0,0,0-3.073-9.22.525.525,0,0,0-.9.278c-.107,1.088-.4,2.326-1.319,2.831-.571-1.2-1.148-2.548-1.676-3.62-.943-1.647-2.016-4.215-3.849-4.625-.3-.057-.436.2-.59.387ZM165.3,48.175a14.072,14.072,0,0,0,1.273,1.191,15.778,15.778,0,0,0,3.709,2.274l-3.741,3.96a3.943,3.943,0,0,0-4.191-4.285Zm25.734.619,2.359,2.521A3.943,3.943,0,0,0,189.2,55.6L185.8,52a16.058,16.058,0,0,0,4.579-2.63c.223-.185.441-.375.652-.573ZM171.462,52.1a20.381,20.381,0,0,0,5.9,1.145l-1.242,5.29a3.963,3.963,0,0,0-5.79-1.624Zm-9.08.186a2.973,2.973,0,1,1-2.375,1.485,2.967,2.967,0,0,1,2.375-1.485Zm30.7,0a2.977,2.977,0,1,1-1.412.4,2.965,2.965,0,0,1,1.412-.4Zm-8.583.139,1.056,4.486a3.963,3.963,0,0,0-5.79,1.624l-1.242-5.259a21.253,21.253,0,0,0,5.976-.851ZM172.518,57.24a2.97,2.97,0,1,1-2.98,2.97A2.967,2.967,0,0,1,172.518,57.24Zm10.849,0a2.97,2.97,0,1,1-2.98,2.97A2.967,2.967,0,0,1,183.367,57.24Z" transform="translate(-159.604 -11.203)" fill="#fff"/>
</svg>
