<svg xmlns="http://www.w3.org/2000/svg" width="48.336" height="50.802" viewBox="0 0 48.336 50.802">
  <g id="Group_8566" data-name="Group 8566" transform="translate(911.679 -4609)">
    <path id="Path_22305" data-name="Path 22305" d="M282.325,180.173a.744.744,0,0,0,.528-.217l2.179-2.178a.771.771,0,0,0,.037-1.068.748.748,0,0,0-1.071-.016l-2.178,2.176a.778.778,0,0,0-.008,1.1.745.745,0,0,0,.513.2Z" transform="translate(-1179.554 4442.105)" fill="#fff"/>
    <path id="Path_22306" data-name="Path 22306" d="M287.154,197.46a.748.748,0,0,0,1.058,0l4.416-4.416a.748.748,0,1,0-1.058-1.058l-4.416,4.416A.747.747,0,0,0,287.154,197.46Z" transform="translate(-1184.084 4429.152)" fill="#fff"/>
    <path id="Path_22307" data-name="Path 22307" d="M375.125,283.583a.742.742,0,0,0,.529-.221l2.2-2.2A.748.748,0,0,0,376.8,280.1l-2.2,2.2a.75.75,0,0,0,.528,1.278Z" transform="translate(-1258.164 4354.499)" fill="#fff"/>
    <path id="Path_22308" data-name="Path 22308" d="M285.029,281.184a.766.766,0,0,0,.039-1.066A.748.748,0,0,0,284,280.1l-2.178,2.178a.772.772,0,0,0-.008,1.1.742.742,0,0,0,.513.205.751.751,0,0,0,.529-.219Z" transform="translate(-1179.552 4354.5)" fill="#fff"/>
    <path id="Path_22309" data-name="Path 22309" d="M287.675,301.092a.747.747,0,0,0,.529-.219l4.415-4.418a.742.742,0,0,0,0-1.056.75.75,0,0,0-1.058,0l-4.415,4.416a.748.748,0,0,0,.528,1.277Z" transform="translate(-1184.078 4341.541)" fill="#fff"/>
    <path id="Path_22310" data-name="Path 22310" d="M245.589,172.749c.14-.15.3-.321.482-.482a2.692,2.692,0,0,1,1.723-.715,1.967,1.967,0,0,1,.793.165c.032.014.062.03.093.044a.839.839,0,0,1-.058-.307V160.745a.856.856,0,0,1,.856-.856h8.738a.854.854,0,0,1,.854.856v10.709a.854.854,0,0,1-.854.856H254.64a3.106,3.106,0,0,1,.807.73,3.545,3.545,0,0,1,.694,1.943h13.83a2.361,2.361,0,0,1,.584-.973c.214-.174.432-.346.649-.517.874-.68,1.773-1.332,2.676-1.937a1.536,1.536,0,0,1,.752-.282l.014,0,.082,0a1.391,1.391,0,0,1,1.125.59l.122-.055a1.913,1.913,0,0,1,.729-.144,2.045,2.045,0,0,1,.3.023v-29.8l-.538.008v.622a2.559,2.559,0,0,1-2.556,2.557,2.525,2.525,0,0,1-.7-.1.782.782,0,0,1,.049.272v10.1a.8.8,0,0,1-.8.8h-8.858a.8.8,0,0,1-.8-.8v-10.1a.8.8,0,0,1,.8-.8h8.633a2.558,2.558,0,0,1-.728-1.04,2.28,2.28,0,0,1-2.619-.258,2.283,2.283,0,0,1-4.223-1.2c0-.091,0-.186,0-.279a1.675,1.675,0,0,1-.291-.154,1.988,1.988,0,0,1-.667-.809H245.906a1.029,1.029,0,0,0-1.03,1.028v31.564a.859.859,0,0,0,.231-.1,3.214,3.214,0,0,0,.481-.455Zm17.225-12a.855.855,0,0,1,.854-.856h8.74a.855.855,0,0,1,.854.856v10.709a.855.855,0,0,1-.854.856h-8.741a.855.855,0,0,1-.854-.856Zm-14.193-15.494a.8.8,0,0,1,.8-.8h8.856a.8.8,0,0,1,.8.8v10.1a.8.8,0,0,1-.8.8h-8.857a.8.8,0,0,1-.8-.8v-10.1Z" transform="translate(-1148.454 4472.403)" fill="#fff"/>
    <path id="Path_22311" data-name="Path 22311" d="M377.858,177.749a.747.747,0,1,0-1.058-1.056l-2.2,2.2a.748.748,0,1,0,1.058,1.058Z" transform="translate(-1258.165 4442.107)" fill="#fff"/>
    <path id="Path_22312" data-name="Path 22312" d="M380.535,197.676a.742.742,0,0,0,.529-.219l4.416-4.416a.748.748,0,0,0-1.058-1.058l-4.416,4.416a.748.748,0,0,0,.528,1.277Z" transform="translate(-1262.747 4429.154)" fill="#fff"/>
    <path id="Path_22313" data-name="Path 22313" d="M380.019,300.861a.748.748,0,0,0,1.058,0l4.416-4.416a.748.748,0,0,0-1.058-1.058l-4.416,4.416A.749.749,0,0,0,380.019,300.861Z" transform="translate(-1262.758 4341.552)" fill="#fff"/>
    <path id="Path_22314" data-name="Path 22314" d="M248.3,405.425a2.739,2.739,0,0,1-2.187-1.095H221.975a2.761,2.761,0,0,1-5.09,0l-.012-.026a2.229,2.229,0,0,1-.347.026h-2.932v6.378h41.691V404.33h-4.8a2.737,2.737,0,0,1-2.187,1.095Z" transform="translate(-1121.951 4249.094)" fill="#fff"/>
    <path id="Path_22315" data-name="Path 22315" d="M370.3,117.321a.824.824,0,0,0,1.1.566c0,.414.008.829.008,1.243a1.214,1.214,0,0,0,2.428,0v-1.241h1v.719a1.213,1.213,0,0,0,2.427,0v-.719h.819v1.806a1.488,1.488,0,0,0,2.977,0v-1.676l1.545-.021c.021-.021.044-.044.061-.065a1.555,1.555,0,0,0,.008-2.125,2.083,2.083,0,0,0-1.679-.316c-.578.1-1.129.331-1.706.445a2.164,2.164,0,0,1-1.694-.254,4.161,4.161,0,0,1-.87-1.136,1.469,1.469,0,0,0-1.143-.772,1.5,1.5,0,0,0-.906.44c-.326.279-.67.7-1.136.654a3.467,3.467,0,0,1-.689-.191,1.385,1.385,0,0,0-.541-.072c-.438.042-.74.47-1.194.529-.286.04-.545-.156-.833-.146a.67.67,0,0,0-.626.342,1.062,1.062,0,0,0,.122.87q.256.561.513,1.121Z" transform="translate(-1254.125 4495.227)" fill="#fff"/>
    <path id="Path_22316" data-name="Path 22316" d="M195.812,374.693v-1.606h-1.48l.045-1.068h-2.525v3.892h4.313a2.273,2.273,0,0,1-.353-1.218Z" transform="translate(-1103.531 4276.445)" fill="#fff"/>
    <path id="Path_22317" data-name="Path 22317" d="M271.256,389.3a1.881,1.881,0,0,1-1.407.849v.4h2.581a2.222,2.222,0,0,1-.24-.509,1.872,1.872,0,0,1-.933-.743Z" transform="translate(-1169.609 4261.806)" fill="#fff"/>
    <path id="Path_22318" data-name="Path 22318" d="M312.835,372.016a1.853,1.853,0,0,1-.319.461c-.039.04-.077.077-.119.114v2.1a2.259,2.259,0,0,1-.353,1.218h16.982a2.691,2.691,0,0,1-.058-.568v-2.256h-2.348l0-1.063v-.005Z" transform="translate(-1205.355 4276.449)" fill="#fff"/>
    <path id="Path_22319" data-name="Path 22319" d="M465.867,379.01v.263a2.28,2.28,0,0,1-4.515.451,2.4,2.4,0,0,1-1.83,2.111h7.432V379.01Z" transform="translate(-1330.297 4270.523)" fill="#fff"/>
    <path id="Path_22320" data-name="Path 22320" d="M216.794,353.581a1.218,1.218,0,0,0,1.218,1.218h0a1.219,1.219,0,0,0,1.218-1.218V354.8a1.692,1.692,0,0,0,3.383,0v-2.354h.093v.085a.807.807,0,0,0,1.614,0v-1.622h1.533v1.622a.809.809,0,0,0,.807.807.827.827,0,0,0,.316-.065v.309a1.218,1.218,0,0,0,2.437,0v-2.732a.773.773,0,0,0,.41-.214c.489-.519.135-1.611-.232-2.087a2.143,2.143,0,0,0-1.887-.8,4.23,4.23,0,0,0-.908.239q-.82.281-1.639.566a1.379,1.379,0,0,1-.65.11c-.591-.095-.817-.871-1.364-1.113a1.352,1.352,0,0,0-1.375.373,9.875,9.875,0,0,1-1.093,1.031,1.9,1.9,0,0,1-.809.289,1.848,1.848,0,0,1-.764-.063,1.921,1.921,0,0,1-1.192-1.048c-.174-.393-.286-.916-.7-1.018-.375-.09-.714.251-.924.578a6.383,6.383,0,0,0-.926,3.215h1.436v2.673Z" transform="translate(-1123.445 4297.558)" fill="#fff"/>
    <path id="Path_22321" data-name="Path 22321" d="M420.636,348.156a.85.85,0,0,0-.625.007c-.172.072-.316.2-.482.284a.55.55,0,0,1-.531.035.861.861,0,0,1-.277-.446c-.07-.164-.2-.338-.379-.328a.523.523,0,0,0-.237.105q-1.338.9-2.61,1.89c-.214.167-.426.335-.638.507a3.532,3.532,0,0,0-.44,1.212h2.35v3.324a1.644,1.644,0,0,0,.1.568,1.665,1.665,0,0,0,1.265,1.068h.6a1.656,1.656,0,0,0,1.364-1.636v-.608a1.329,1.329,0,0,0,1.986-1.154v-1.563h2.081v1.33a1.212,1.212,0,0,0,2.425,0v-1.33h1.907c0-.014.008-.03.012-.042a2.308,2.308,0,0,0-.11-.785,3.647,3.647,0,0,0-.324-1.038,1.673,1.673,0,0,0-1.348-.971,4.629,4.629,0,0,0-1.669.584,2.705,2.705,0,0,1-1.753.032.838.838,0,0,1-.556-.371c-.107-.184-.107-.468-.377-.488a.751.751,0,0,0-.454.167.777.777,0,0,1-.458.167c-.254-.018-.414-.269-.622-.419a.857.857,0,0,0-.2-.1Z" transform="translate(-1292.083 4297.043)" fill="#fff"/>
  </g>
</svg>
