<svg xmlns="http://www.w3.org/2000/svg" width="49.443" height="50.889" viewBox="0 0 49.443 50.889">
  <g id="Group_8567" data-name="Group 8567" transform="translate(1196.252 -4446)">
    <path id="Path_22322" data-name="Path 22322" d="M132.2,23.429a12.835,12.835,0,0,0-24-2.035c-.268,0-.482-.053-.75-.053a7.887,7.887,0,0,0-7.874,7.5c-.268,0-.536-.053-.75-.053a7.607,7.607,0,0,0,0,15.213h31.551a10.368,10.368,0,0,0,1.821-20.57Z" transform="translate(-1287.531 4431.999)" fill="#fff"/>
    <path id="Path_22323" data-name="Path 22323" d="M443.518,354.6a.89.89,0,0,0-1.232-.321l-1.875,1.071v-2.2a.911.911,0,0,0-1.821,0v2.143l-1.875-1.071a.9.9,0,0,0-.911,1.553l1.875,1.071-1.875,1.071a.851.851,0,0,0-.428.536.822.822,0,0,0,.107.7.851.851,0,0,0,.536.429.822.822,0,0,0,.7-.107l1.875-1.072v2.2a.911.911,0,1,0,1.821,0v-2.142l1.875,1.071a1.022,1.022,0,0,0,.7.107.85.85,0,0,0,.536-.429.89.89,0,0,0-.321-1.232l-1.875-1.071,1.875-1.071a.867.867,0,0,0,.321-1.232Z" transform="translate(-1598.684 4126.115)" fill="#fff"/>
    <path id="Path_22324" data-name="Path 22324" d="M315.381,360.195a.85.85,0,0,0,.536-.429.89.89,0,0,0-.321-1.232l-1.875-1.071,1.875-1.071a.9.9,0,0,0-.911-1.553l-1.875,1.071v-2.2a.911.911,0,0,0-1.821,0v2.143l-1.875-1.071a.89.89,0,0,0-1.232.321,1.022,1.022,0,0,0-.107.7.852.852,0,0,0,.429.536l1.875,1.071-1.875,1.071a.89.89,0,0,0-.321,1.232.852.852,0,0,0,.536.429.823.823,0,0,0,.7-.107l1.875-1.071v2.2a.911.911,0,1,0,1.821,0v-2.143l1.875,1.071A1.069,1.069,0,0,0,315.381,360.195Z" transform="translate(-1483.296 4125.606)" fill="#fff"/>
    <path id="Path_22325" data-name="Path 22325" d="M384.335,452.172a.821.821,0,0,0-.107-.7.851.851,0,0,0-.536-.429.821.821,0,0,0-.7.107l-1.875,1.071v-2.2a.911.911,0,1,0-1.821,0v2.143l-1.875-1.071a1.022,1.022,0,0,0-.7-.107.851.851,0,0,0-.536.428.89.89,0,0,0,.322,1.232l1.875,1.071-1.875,1.071a.9.9,0,1,0,.91,1.553l1.875-1.071v2.2a.911.911,0,0,0,1.821,0v-2.142L383,456.4a.9.9,0,0,0,.91-1.553l-1.875-1.071,1.875-1.071A.847.847,0,0,0,384.335,452.172Z" transform="translate(-1545.072 4038.504)" fill="#fff"/>
    <path id="Path_22326" data-name="Path 22326" d="M247.621,452.172a.821.821,0,0,0-.107-.7.851.851,0,0,0-.536-.429.821.821,0,0,0-.7.107l-1.875,1.071v-2.2a.911.911,0,1,0-1.821,0v2.143L240.71,451.1a.9.9,0,0,0-.911,1.553l1.875,1.071L239.8,454.8a.851.851,0,0,0-.429.536.821.821,0,0,0,.107.7.852.852,0,0,0,.536.429.821.821,0,0,0,.7-.107l1.875-1.071v2.2a.911.911,0,0,0,1.821,0v-2.143l1.875,1.071a.9.9,0,1,0,.911-1.553l-1.875-1.071,1.875-1.071A.853.853,0,0,0,247.621,452.172Z" transform="translate(-1421.428 4038.504)" fill="#fff"/>
    <path id="Path_22327" data-name="Path 22327" d="M187.7,360.191a.851.851,0,0,0,.536-.428,1.022,1.022,0,0,0,.107-.7.851.851,0,0,0-.429-.536l-1.875-1.072,1.875-1.071a.9.9,0,1,0-.911-1.553l-1.875,1.071v-2.2a.911.911,0,1,0-1.821,0v2.142l-1.875-1.071a.9.9,0,1,0-.911,1.553l1.875,1.071-1.875,1.071a.89.89,0,0,0-.321,1.232.851.851,0,0,0,.536.429.821.821,0,0,0,.7-.107l1.875-1.071v2.2a.911.911,0,0,0,1.821,0v-2.143l1.875,1.071A1.065,1.065,0,0,0,187.7,360.191Z" transform="translate(-1367.83 4125.61)" fill="#fff"/>
  </g>
</svg>
