<svg xmlns="http://www.w3.org/2000/svg" width="47.663" height="50.999" viewBox="0 0 47.663 50.999">
  <g id="Group_8568" data-name="Group 8568" transform="translate(1221.232 -4567)">
    <path id="Path_22328" data-name="Path 22328" d="M153.828,27.534a26.471,26.471,0,0,1,2.729.527,21.937,21.937,0,0,1,2.365.692,21.383,21.383,0,0,1,2,.8q.732.329,1.437.708c.487.261.97.535,1.437.835.45.29.9.575,1.335.888a24.318,24.318,0,0,1,1.915,1.543c.044.039.12.06.108.144a2.215,2.215,0,0,1-.709-.421,8.9,8.9,0,0,0-1.067-.639,10.5,10.5,0,0,0-1.654-.79,17.323,17.323,0,0,0-1.815-.608c-.626-.15-1.249-.321-1.876-.472l-.416-.139a.282.282,0,0,0-.2-.077.013.013,0,0,0-.02-.007,3.324,3.324,0,0,0-.688-.226.018.018,0,0,0-.025-.008.419.419,0,0,0-.212-.066l-.074-.009-.318-.077a.02.02,0,0,0-.026-.008,3.014,3.014,0,0,0-.743-.21,5.253,5.253,0,0,0-1.353-.251l-.017-.008-.019,0a.42.42,0,0,0-.089-.035c-.56-.091-1.118-.193-1.68-.266a15.741,15.741,0,0,0-1.771-.158,31.624,31.624,0,0,0-3.934.008c-.012,0-.023.01-.035.015a2.019,2.019,0,0,0-.549.043l-.077,0a2.618,2.618,0,0,0-.563.043,10.162,10.162,0,0,0-1.29.186l-.017,0-.015.008a1.263,1.263,0,0,0-.437.073l-.153.018c-.023-.008-.039,0-.047.019h0a6.221,6.221,0,0,0-.825.123l-.019,0-.017.01a.873.873,0,0,0-.318.07l-.075.01a2.113,2.113,0,0,0-.547.15c-.466.114-.942.2-1.4.348-.829.274-1.666.527-2.478.857-.55.223-1.1.459-1.633.706-.514.236-1.02.5-1.518.772-.773.424-1.528.877-2.254,1.372-.63.429-1.247.877-1.84,1.359-.276.224-.548.461-.827.683s-.533.473-.8.713c-.481.44-.936.906-1.385,1.374-.231.24-.459.495-.676.755-.25.3-.506.6-.754.9-.357.432-.68.892-1.01,1.346-.434.6-.84,1.213-1.216,1.844q-.675,1.133-1.247,2.327c-.254.53-.452,1.085-.724,1.6-.17.325-.193.7-.4,1.028.173-.711.359-1.391.58-2.066.261-.8.568-1.573.892-2.342a19.129,19.129,0,0,1,1.04-2.13c.254-.44.5-.884.771-1.316s.56-.881.858-1.309a24.979,24.979,0,0,1,2.113-2.641c.4-.43.81-.844,1.225-1.257.52-.518,1.071-1,1.631-1.466.277-.232.564-.46.856-.678.407-.306.827-.592,1.237-.892.389-.284.821-.506,1.226-.767a13.913,13.913,0,0,1,1.469-.818,11.587,11.587,0,0,1,1.343-.634c.356-.12.685-.322,1.038-.458a28.977,28.977,0,0,1,3.165-1.03,26.707,26.707,0,0,1,4.755-.781,1.917,1.917,0,0,0,.592-.073h3.536a3.517,3.517,0,0,0,.826.076.053.053,0,0,0,.038,0c.445.066.888.128,1.337.153Z" transform="translate(-1344.531 4539.699)" fill="#fff"/>
    <path id="Path_22329" data-name="Path 22329" d="M149.538,74.706a9.808,9.808,0,0,0-1.562,1.59,9.152,9.152,0,0,0-1.3,2.217,8.242,8.242,0,0,0-.569,3.393,10.9,10.9,0,0,0,.48,2.772,15.434,15.434,0,0,0,.8,2.145q.328.719.723,1.41c.257.447.533.881.823,1.3a17.408,17.408,0,0,0,1.707,2.11,20.843,20.843,0,0,0,2.049,1.9c.32.258.643.512.975.75.513.368,1.04.718,1.583,1.04a20.3,20.3,0,0,0,2.1,1.1,26.115,26.115,0,0,0,3.01,1.113,3.849,3.849,0,0,0,.424.08,17.564,17.564,0,0,0,5.185.6,9.839,9.839,0,0,1,2.5.2,4.056,4.056,0,0,1,.684.236.575.575,0,0,1,.4.47.618.618,0,0,1-.319.529,4.064,4.064,0,0,1-1.516.651,13.409,13.409,0,0,1-4.015.332,26.926,26.926,0,0,1-3.034-.386c-.751-.126-1.474-.347-2.212-.52-.754-.176-1.463-.482-2.2-.69-.059-.017-.113-.067-.181-.03.011-.071-.034-.074-.088-.074a.124.124,0,0,0,.09.072c.009.122.128.137.194.2a6.782,6.782,0,0,0,.929.743,9.293,9.293,0,0,0,1.27.8c.134.066.254.16.386.232a18.563,18.563,0,0,0,2.867,1.248,23.125,23.125,0,0,0,3.457.859,28.233,28.233,0,0,0,5.518.291,32.341,32.341,0,0,0,4.694-.545c.452-.076.9-.184,1.343-.279a.21.21,0,0,1,.169,0,4.035,4.035,0,0,1-.581.245c-.477.121-.916.352-1.391.467-.824.2-1.618.5-2.457.657-.66.121-1.307.329-1.973.426-1.4.2-2.792.43-4.206.508-1.106.06-2.212.059-3.318.034a31.026,31.026,0,0,1-4.133-.445c-.79-.125-1.558-.336-2.337-.5a22.117,22.117,0,0,1-2.212-.661,23.239,23.239,0,0,1-2.309-.916c-.507-.227-1-.473-1.5-.722-.559-.282-1.1-.6-1.66-.885a10.9,10.9,0,0,1-1.638-1.06c-.318-.239-.63-.486-.921-.752-.425-.39-.838-.793-1.23-1.221q-.423-.46-.823-.939c-.387-.464-.758-.946-1.1-1.445-.162-.236-.328-.47-.487-.707-.191-.407-.493-.746-.689-1.15v0a.523.523,0,0,0-.159-.233v0q-.192-.367-.385-.734a4.35,4.35,0,0,0,.291,1.069c.218.628.434,1.255.692,1.87.21.5.48.969.682,1.47a3.261,3.261,0,0,0,.23.43c.328.555.637,1.124.995,1.659.4.605.825,1.2,1.283,1.772.214.266.441.529.649.8a8.436,8.436,0,0,0,.65.724c.294.3.563.634.875.918.24.219.449.47.7.671.286.225.518.512.823.717a.817.817,0,0,0,.394.323,10.738,10.738,0,0,0,1.308,1.067c.336.256.672.516,1.023.751.434.289.87.575,1.3.862.469.309.954.59,1.436.876.649.385,1.316.743,2,1.071.6.288,1.193.587,1.815.824a.956.956,0,0,1,.226.142c.166.123.391.106.579.193a4.223,4.223,0,0,0,.4.137.258.258,0,0,1-.226.015c-.854-.166-1.686-.411-2.52-.651-.753-.217-1.492-.472-2.225-.739-.66-.241-1.316-.5-1.961-.784-.529-.235-1.06-.471-1.579-.726a14.016,14.016,0,0,1-1.559-.818.556.556,0,0,0-.284-.124l-.079-.031,0,0-.04-.042h0c-.318-.232-.669-.412-1-.62-.576-.359-1.141-.738-1.71-1.109h0a.116.116,0,0,0-.085-.065c-.378-.278-.764-.546-1.134-.836-.353-.277-.689-.575-1.033-.863a25.956,25.956,0,0,1-2.815-2.776c-.262-.3-.5-.614-.757-.919a20.621,20.621,0,0,1-1.285-1.768c-.219-.328-.437-.664-.634-1.009-.31-.544-.626-1.088-.889-1.653s-.522-1.122-.753-1.7c-.332-.832-.584-1.688-.874-2.534-.039-.114-.058-.236-.093-.383a2.477,2.477,0,0,0-.42,1.275,10.457,10.457,0,0,0,.323,3.069,24.6,24.6,0,0,0,.784,2.724c.245.736.549,1.453.813,2.182a7,7,0,0,1,.287,1.077c.014.075.046.176-.038.213s-.151-.048-.2-.114a12.048,12.048,0,0,1-1.125-1.8c-.521-.938-.963-1.913-1.4-2.889-.378-.844-.684-1.719-1.021-2.581.005-.023-.005-.036-.028-.04h0a4.834,4.834,0,0,0-.36-1.139l-.051-.167-.02-.067a2.879,2.879,0,0,0-.151-.513c0-.026-.005-.051-.008-.076a1.648,1.648,0,0,0-.029-.171,11.858,11.858,0,0,1-.491-2.817v-.672a1.353,1.353,0,0,0-.062.4,21.716,21.716,0,0,0-.21,2.5.407.407,0,0,0-.027.21c-.009.651-.03,1.3-.019,1.954a12.87,12.87,0,0,0,.131,1.773c.024.531.153,1.048.219,1.573a8.843,8.843,0,0,0,.39,1.455c.162.533.439,1.019.6,1.549a1.505,1.505,0,0,1,.068.619c-.018.155-.106.185-.235.126a1.228,1.228,0,0,1-.415-.322,8.906,8.906,0,0,1-1.18-1.836,20,20,0,0,1-1.093-2.655.592.592,0,0,0-.091-.193,2.609,2.609,0,0,0-.144-.545c-.151-.593-.319-1.183-.48-1.773,0-.013,0-.027-.005-.04a2.73,2.73,0,0,0-.147-.8c-.081-.5-.16-.994-.244-1.49a15.963,15.963,0,0,1-.186-1.854,30.4,30.4,0,0,1,.039-3.846,21.621,21.621,0,0,1,.465-2.724,20.769,20.769,0,0,1,.607-2c.106-.339.307-.647.444-.978a20.218,20.218,0,0,1,.943-1.89c.221-.407.478-.789.715-1.184.267-.446.589-.859.891-1.283.223-.314.467-.611.708-.908s.492-.588.748-.874c.421-.47.853-.93,1.306-1.365.256-.245.52-.489.79-.723.33-.286.662-.57,1-.844a17.749,17.749,0,0,1,1.423-1.062c.365-.239.728-.481,1.1-.71.495-.3,1-.6,1.512-.861.561-.287,1.13-.564,1.711-.816.63-.274,1.266-.534,1.91-.759s1.264-.485,1.922-.663a6.282,6.282,0,0,0,1.148-.4,1.656,1.656,0,0,1,.418-.084,6.9,6.9,0,0,0,1.037-.281.014.014,0,0,0,.021-.006.742.742,0,0,0,.278-.079l.074-.01a3.425,3.425,0,0,0,.557-.147l.074-.009a.328.328,0,0,0,.2-.031l.077-.008c.285-.021.554-.122.836-.166.025,0,.043-.043.065-.066a.515.515,0,0,0,.24-.008.216.216,0,0,0,.155-.031h0a6.952,6.952,0,0,0,.865-.156l.039,0,.67-.074a.035.035,0,0,0,.037,0,2.383,2.383,0,0,0,.609-.069c.009.007.016.006.021,0a3.769,3.769,0,0,0,.725-.075l.012.008.012-.006,1.274-.079,1.121-.009,1.376.077.038,0c.2.073.417.026.613.118-.025.075-.1.075-.133.12a7.982,7.982,0,0,0-1.826.219c-1.029.184-2.061.356-3.072.634-.673.185-1.348.365-2.02.557-.743.212-1.463.485-2.185.751-.629.231-1.247.5-1.859.776-.566.258-1.118.54-1.664.831-.475.253-.941.528-1.4.817-.42.265-.83.542-1.235.826a18.564,18.564,0,0,0-1.557,1.239c-.462.4-.9.83-1.321,1.275-.229.243-.45.5-.674.751-.238.266-.474.537-.7.811-.247.3-.5.6-.738.91-.3.385-.6.775-.884,1.169-.308.426-.6.865-.881,1.316-.266.434-.526.874-.749,1.328a7.572,7.572,0,0,0-.808,2.381,1.769,1.769,0,0,0,.063.93c.05.117.089.256.243.279s.247-.091.307-.2a11.441,11.441,0,0,0,.659-1.243,2.317,2.317,0,0,1,.173-.328c.284-.483.52-.992.8-1.48.24-.424.48-.85.732-1.266.34-.562.708-1.109,1.1-1.638a17.255,17.255,0,0,1,2.4-2.7,13.747,13.747,0,0,1,1.491-1.163,13.99,13.99,0,0,1,1.61-.923,11.108,11.108,0,0,1,1.341-.635,6.167,6.167,0,0,0,.571-.258,17.2,17.2,0,0,1,1.811-.689,13.909,13.909,0,0,1,3.736-.747c.072,0,.143,0,.241,0a.357.357,0,0,1-.236.138c-.383.1-.711.331-1.079.463-.468.169-.89.433-1.341.637-.468.21-.909.482-1.358.735-.488.276-.984.541-1.453.848-.392.257-.792.5-1.17.782-.356.264-.719.519-1.067.793-.364.286-.714.587-1.061.892-.254.223-.491.467-.73.7a9.554,9.554,0,0,0-.81.92c-.288.366-.539.753-.8,1.134-.182.264-.308.558-.477.828a9.082,9.082,0,0,0-.665,1.349,11.478,11.478,0,0,0-.976,3.974,3.245,3.245,0,0,0,.112,1.05c.045.151.1.339.268.355s.243-.168.3-.3c.185-.417.364-.838.521-1.268.258-.706.558-1.394.869-2.077q.378-.827.827-1.622a12.246,12.246,0,0,1,2.483-3.2,15.285,15.285,0,0,1,1.374-1.1,16.008,16.008,0,0,1,2.331-1.4,10.3,10.3,0,0,1,2.191-.78,4.7,4.7,0,0,1,1.21-.072c-.431.183-.84.4-1.256.606a12.257,12.257,0,0,0-1.517.888,12.882,12.882,0,0,0-1.282.958Z" transform="translate(-1350.456 4507.073)" fill="#fff"/>
  </g>
</svg>
