<svg xmlns="http://www.w3.org/2000/svg" width="50.076" height="36.16" viewBox="0 0 50.076 36.16">
  <g id="Group_8569" data-name="Group 8569" transform="translate(999.532 -4705.936)">
    <path id="Path_22335" data-name="Path 22335" d="M132.506,252.693a5.023,5.023,0,0,1-3.057-.949,8.139,8.139,0,0,0-4.744-1.423,8.275,8.275,0,0,0-4.744,1.423,5.142,5.142,0,0,1-3.057.949,5.023,5.023,0,0,1-3.057-.949,8.617,8.617,0,0,0-9.488,0,5.142,5.142,0,0,1-3.057.949,5.318,5.318,0,0,1-3.11-.949,8.617,8.617,0,0,0-9.488,0,5.192,5.192,0,0,1-3.11.949,1.586,1.586,0,0,0-1.581,1.581,1.621,1.621,0,0,0,1.581,1.581,8.135,8.135,0,0,0,4.744-1.423,5.192,5.192,0,0,1,3.11-.949,5.318,5.318,0,0,1,3.11.949,8.617,8.617,0,0,0,9.488,0,5.142,5.142,0,0,1,3.057-.949,5.023,5.023,0,0,1,3.057.949,8.617,8.617,0,0,0,9.488,0,5.142,5.142,0,0,1,3.057-.949,5.023,5.023,0,0,1,3.057.949,8.139,8.139,0,0,0,4.744,1.423,1.586,1.586,0,0,0,1.581-1.581A1.621,1.621,0,0,0,132.506,252.693Z" transform="translate(-1083.544 4470.901)" fill="#fff"/>
    <path id="Path_22336" data-name="Path 22336" d="M132.506,343.413a5.023,5.023,0,0,1-3.057-.949,8.139,8.139,0,0,0-4.744-1.423,8.275,8.275,0,0,0-4.744,1.423,5.142,5.142,0,0,1-3.057.949,5.023,5.023,0,0,1-3.057-.949,8.617,8.617,0,0,0-9.488,0,5.142,5.142,0,0,1-3.057.949,5.318,5.318,0,0,1-3.11-.949,8.617,8.617,0,0,0-9.488,0,5.192,5.192,0,0,1-3.11.949,1.581,1.581,0,1,0,0,3.163,8.135,8.135,0,0,0,4.744-1.423,5.192,5.192,0,0,1,3.11-.949,5.319,5.319,0,0,1,3.11.949,8.617,8.617,0,0,0,9.488,0,5.142,5.142,0,0,1,3.057-.949,5.024,5.024,0,0,1,3.057.949,8.617,8.617,0,0,0,9.488,0,5.142,5.142,0,0,1,3.057-.949,5.023,5.023,0,0,1,3.057.949,8.139,8.139,0,0,0,4.744,1.423,1.581,1.581,0,1,0,0-3.163Z" transform="translate(-1083.544 4388.721)" fill="#fff"/>
    <path id="Path_22337" data-name="Path 22337" d="M132.506,162.533a5.023,5.023,0,0,1-3.057-.949,8.139,8.139,0,0,0-4.744-1.423,8.275,8.275,0,0,0-4.744,1.423,5.142,5.142,0,0,1-3.057.949,5.023,5.023,0,0,1-3.057-.949,8.617,8.617,0,0,0-9.488,0,5.142,5.142,0,0,1-3.057.949,5.318,5.318,0,0,1-3.11-.949,8.617,8.617,0,0,0-9.488,0,5.192,5.192,0,0,1-3.11.949,1.586,1.586,0,0,0-1.581,1.581,1.621,1.621,0,0,0,1.581,1.581,8.135,8.135,0,0,0,4.744-1.423,5.192,5.192,0,0,1,3.11-.949,5.318,5.318,0,0,1,3.11.949,8.617,8.617,0,0,0,9.488,0,5.142,5.142,0,0,1,3.057-.949,5.023,5.023,0,0,1,3.057.949,8.617,8.617,0,0,0,9.488,0,5.142,5.142,0,0,1,3.057-.949,5.023,5.023,0,0,1,3.057.949,8.139,8.139,0,0,0,4.744,1.423,1.586,1.586,0,0,0,1.581-1.581A1.621,1.621,0,0,0,132.506,162.533Z" transform="translate(-1083.544 4552.574)" fill="#fff"/>
    <path id="Path_22338" data-name="Path 22338" d="M85.58,91.081h46.913a1.581,1.581,0,0,0,0-3.163H85.58A1.586,1.586,0,0,0,84,89.5,1.621,1.621,0,0,0,85.58,91.081Z" transform="translate(-1083.531 4618.018)" fill="#fff"/>
    <path id="Path_22339" data-name="Path 22339" d="M132.493,438.48H85.58a1.581,1.581,0,1,0,0,3.163h46.913a1.586,1.586,0,0,0,1.581-1.581A1.621,1.621,0,0,0,132.493,438.48Z" transform="translate(-1083.531 4300.453)" fill="#fff"/>
  </g>
</svg>
