<svg xmlns="http://www.w3.org/2000/svg" width="50.884" height="43.431" viewBox="0 0 50.884 43.431">
  <g id="Group_8570" data-name="Group 8570" transform="translate(1618.687 -4761)">
    <path id="Path_22340" data-name="Path 22340" d="M135.362,306.936a4.255,4.255,0,0,0-5.453-4.1.445.445,0,0,0-.161.781l.036.03h0a.441.441,0,0,0,.232.078.478.478,0,0,0,.131,0,3.337,3.337,0,1,1,.941,6.555H108.854a.456.456,0,1,0,0,.912h22.259a4.255,4.255,0,0,0,4.249-4.255Z" transform="translate(-1720.455 4481.677)" fill="#fff"/>
    <path id="Path_22341" data-name="Path 22341" d="M147.351,448.435a.453.453,0,0,0-.453-.453H126.04a.456.456,0,1,0,0,.912H146.9a.453.453,0,0,0,.453-.459Z" transform="translate(-1736.3 4347.694)" fill="#fff"/>
    <path id="Path_22342" data-name="Path 22342" d="M222.717,497.336a2.52,2.52,0,0,0-.143-.215l-.113-.137a2.234,2.234,0,0,0-.161-.173,2.513,2.513,0,0,0-.3-.244l-.137-.077a2.44,2.44,0,0,0-.25-.137l-.149-.06h0a2.462,2.462,0,0,0-.286-.09l-.137-.036a2.45,2.45,0,0,0-.453-.048H205.965a.456.456,0,0,0,0,.912H220.59a1.558,1.558,0,0,1,.358.048l.1.03h0a1.583,1.583,0,0,1,.232.089l.1.054a1.589,1.589,0,0,1,.215.149l.065.054a1.6,1.6,0,0,1,.227.256,1.579,1.579,0,0,1-1.978,2.318.464.464,0,1,0-.393.84,2.479,2.479,0,0,0,3.278-3.391Z" transform="translate(-1809.991 4303.31)" fill="#fff"/>
    <path id="Path_22343" data-name="Path 22343" d="M133.91,104.848a16.09,16.09,0,0,0-15.6,12.324,9.356,9.356,0,0,0-3.027-.566,10.179,10.179,0,0,0-10.131,9.589,2.243,2.243,0,0,1,.727-.131h22.241a1.52,1.52,0,1,0-.423-2.98,2.278,2.278,0,0,1-1.293-4.368,6.068,6.068,0,0,1,3.23,11.7,2.253,2.253,0,0,1-.131,3.385,4.316,4.316,0,0,1,2.765,3.147h1.645a16.055,16.055,0,0,0,0-32.1Z" transform="translate(-1717.459 4664.07)" fill="#fff"/>
    <path id="Path_22344" data-name="Path 22344" d="M39.641,20.357a9.57,9.57,0,0,1,1.788.173,18.11,18.11,0,0,1,10.727-10.8A16.019,16.019,0,1,0,27.823,30.488,12,12,0,0,1,39.641,20.357Z" transform="translate(-1642.07 4757.601)" fill="#fff"/>
  </g>
</svg>
