<svg xmlns="http://www.w3.org/2000/svg" width="50.109" height="50.972" viewBox="0 0 50.109 50.972">
  <g id="Group_8574" data-name="Group 8574" transform="translate(-332.446 -146.014)">
    <path id="Path_22332" data-name="Path 22332" d="M157.925,388.243v-6.4a6.064,6.064,0,0,1-1.731-1.235,6.014,6.014,0,0,1-1.724,1.233v6.4a9.2,9.2,0,0,1-2.513,6.289H135.385a9.2,9.2,0,0,1-2.513-6.289v-6.977a5.109,5.109,0,0,1-1.728-1.026,5.123,5.123,0,0,1-1.728,1.026v6.977a9.2,9.2,0,0,1-2.513,6.289h-4.4v1.728h44.925v-1.728h-6.99a9.207,9.207,0,0,1-2.513-6.289Z" transform="translate(212.534 -199.275)" fill="#fff"/>
    <path id="Path_22333" data-name="Path 22333" d="M353.1,50.277l-.7-.521.523-.694a3.415,3.415,0,0,0-2.366-5.484l-1.183-.13.49-1.084a3.426,3.426,0,0,0-1.515-4.466,5.176,5.176,0,0,1-4.218,2.181V38.351a3.451,3.451,0,0,0,.6-6.849l-.888-.156.2-.881a3.453,3.453,0,1,0-6.822-.752,5.145,5.145,0,0,1,3.112,1.037l-1.038,1.382a3.419,3.419,0,0,0-2.073-.691,3.417,3.417,0,0,0-3.319,4.377,5.134,5.134,0,0,1,.727-.057,5.189,5.189,0,0,1,5.184,5.184h-1.728a3.456,3.456,0,1,0-6.6,1.421l.49,1.084-1.183.13a3.416,3.416,0,0,0-2.77,4.814,5.173,5.173,0,0,1,2.285-.537v1.728a3.442,3.442,0,0,0-2.9,1.579,4.35,4.35,0,0,1-.216.44,4.183,4.183,0,0,1,1.213,4.313,3.5,3.5,0,0,0,2.6.509l1.037-.213,0,1.165a4.318,4.318,0,0,0,7.605,2.783,5.991,5.991,0,0,1-.694-2.8h1.728a4.32,4.32,0,1,0,4.32-4.32V51.31a6.053,6.053,0,0,1,5.978,5.177c.023,0,.047.007.07.007a3.459,3.459,0,0,0,3.456-3.456,3.424,3.424,0,0,0-1.4-2.761Zm-17.6,4.489a1.728,1.728,0,0,0-3.456,0h-1.728a3.456,3.456,0,0,1,6.912,0Zm3.456-8.639a1.728,1.728,0,0,0-3.456,0h-1.728a3.456,3.456,0,0,1,6.912,0Zm9.5,3.456a1.728,1.728,0,0,0-3.456,0h-1.728a3.456,3.456,0,0,1,6.912,0Z" transform="translate(28.056 119.758)" fill="#fff"/>
    <path id="Path_22334" data-name="Path 22334" d="M98.842,120.44H100.5l.14.692a3.466,3.466,0,0,0,3.387,2.764,3.422,3.422,0,0,0,2.763-1.4l.693-.93.693.93a3.422,3.422,0,0,0,2.763,1.4,3.466,3.466,0,0,0,3.387-2.764l.14-.692h1.657a2.6,2.6,0,0,0,2.592-2.592,2.569,2.569,0,0,0-.764-1.832,4.272,4.272,0,0,1-5.505-.074l1.127-1.31a2.587,2.587,0,1,0,2.448-4.432,4.3,4.3,0,0,1-2.306,1.473L113.294,110a2.591,2.591,0,0,0-.089-5.049l-.9-.192.251-.889a2.536,2.536,0,0,0-1.94-3.239l-.9-.192.251-.889a2.592,2.592,0,1,0-4.958,0l.251.889-.9.192a2.536,2.536,0,0,0-1.94,3.239l.251.889-.9.192a2.6,2.6,0,0,0-2.053,2.534,2.575,2.575,0,0,0,.174.879,4.3,4.3,0,0,1,2.682,1.063l-1.142,1.3a2.592,2.592,0,1,0-1.714,4.537v1.728a4.279,4.279,0,0,1-2.692-.968,2.588,2.588,0,0,0,1.828,4.424Zm10.367-15.551a3.459,3.459,0,0,1,3.456,3.456h-1.728a1.728,1.728,0,0,0-3.456,0h-1.728A3.459,3.459,0,0,1,109.209,104.889Zm-3.456,8.639a3.459,3.459,0,0,1,3.456,3.456h-1.728a1.728,1.728,0,0,0-3.456,0H102.3A3.459,3.459,0,0,1,105.754,113.529Z" transform="translate(236.195 56.675)" fill="#fff"/>
  </g>
</svg>
