<svg xmlns="http://www.w3.org/2000/svg" width="32.968" height="51.275" viewBox="0 0 32.968 51.275">
  <path id="noun-umbrella-rain-1578008" d="M185.39,42.91V30.893a4.8,4.8,0,0,0-1.258.377,8.25,8.25,0,0,0-2.076,1.321,1.083,1.083,0,0,1-1.51,0,6.234,6.234,0,0,0-4.278-1.825,6.676,6.676,0,0,0-4.467,1.825,1.079,1.079,0,0,1-1.825-.755A16.251,16.251,0,0,1,174.82,20.2a16.574,16.574,0,0,1,10.57-4.844V14.346a1.069,1.069,0,0,1,2.139,0v1.006A16.726,16.726,0,0,1,198.1,20.2a16.51,16.51,0,0,1,4.844,11.64,1.1,1.1,0,0,1-1.069,1.069,1.2,1.2,0,0,1-.818-.315,6.287,6.287,0,0,0-8.745,0,1.007,1.007,0,0,1-1.447,0,9.543,9.543,0,0,0-2.076-1.321,4.777,4.777,0,0,0-1.258-.377V42.909a1.21,1.21,0,0,1,1.069,1.132v6.166a1.116,1.116,0,0,1-1.132,1.069h-2.013a1.116,1.116,0,0,1-1.132-1.069V44.042a1.157,1.157,0,0,1,1.069-1.132Zm5.285-13.15a27.3,27.3,0,0,0-.629-6.921,8.823,8.823,0,0,0-3.586-5.222,8.822,8.822,0,0,0-3.586,5.222,27.3,27.3,0,0,0-.629,6.921,8.411,8.411,0,0,1,8.431,0ZM202.944,9.753a1.06,1.06,0,0,1-1.069,1.069,1.076,1.076,0,0,1-1.132-1.069V7.677a1.116,1.116,0,0,1,1.132-1.069,1.1,1.1,0,0,1,1.069,1.069Zm0,6.669a1.06,1.06,0,0,1-1.069,1.069,1.076,1.076,0,0,1-1.132-1.069V14.346a1.116,1.116,0,0,1,1.132-1.069,1.1,1.1,0,0,1,1.069,1.069Zm-24.6-10.192A1.076,1.076,0,0,1,177.212,7.3a1.06,1.06,0,0,1-1.069-1.069V4.154a1.1,1.1,0,0,1,1.069-1.069,1.116,1.116,0,0,1,1.132,1.069Zm0,6.669a1.076,1.076,0,0,1-1.132,1.069,1.06,1.06,0,0,1-1.069-1.069V10.823a1.1,1.1,0,0,1,1.069-1.069,1.116,1.116,0,0,1,1.132,1.069Zm18.434,0a1.06,1.06,0,0,1-1.069,1.069,1.076,1.076,0,0,1-1.132-1.069V6.734a1.116,1.116,0,0,1,1.132-1.069,1.1,1.1,0,0,1,1.069,1.069ZM184.446,9.817a1.069,1.069,0,0,1-2.139,0V3.651a1.069,1.069,0,0,1,2.139,0Zm6.166-6.669a1.06,1.06,0,0,1-1.069,1.069,1.024,1.024,0,0,1-1.069-1.069V1.071A1.06,1.06,0,0,1,189.542,0a1.1,1.1,0,0,1,1.069,1.069Zm0,6.669a1.06,1.06,0,0,1-1.069,1.069,1.024,1.024,0,0,1-1.069-1.069V7.741a1.06,1.06,0,0,1,1.069-1.069,1.1,1.1,0,0,1,1.069,1.069Zm-18.434,6.606a1.076,1.076,0,0,1-1.132,1.069,1.06,1.06,0,0,1-1.069-1.069V10.258a1.1,1.1,0,0,1,1.069-1.069,1.116,1.116,0,0,1,1.132,1.069Z" transform="translate(-169.976 -0.002)" fill="#fff"/>
</svg>
