<svg xmlns="http://www.w3.org/2000/svg" width="51" height="47.351" viewBox="0 0 51 47.351">
  <path id="Path_22303" data-name="Path 22303" d="M138.339,63.306c-2.3-.688-4.109.6-5.313,2.5-3.7.495-6.668,3.571-7.959,6.625-1.807-.043-4.237,1.183-4.237,2.409,0,.731.667,1.441,1.7,1.785a6.215,6.215,0,0,1,5.248-2.925c1.7-1.463,3.485-1.936,5.291-.817,3.162-2.323,6.6-1.807,9.4.194a5.762,5.762,0,0,1,5.743,2.667,10.412,10.412,0,0,1,4.624,2.216,7.292,7.292,0,0,0,.817-.688c2.366,1.226,4.8,1.226,6.345-.559a3.7,3.7,0,0,0,3.355-1.85,2.854,2.854,0,0,0,2.41-2.345c-.022-1.355-.925-1.957-2.452-1.893-1.613-2.237-3.1-2.474-5.442-1.914-.624-3.635-2.947-4.861-5.614-4.818-1.742-1.807-3.42-1.872-4.818-.581-2.99-2.517-6.475-2.022-9.1,0Zm-5.27,10.97c-1.377-1.312-3.054-1.248-4.818.581-2.646-.043-4.99,1.162-5.593,4.818-2.366-.559-3.829-.323-5.442,1.914-1.549-.064-2.431.538-2.452,1.893a2.854,2.854,0,0,0,2.431,2.345,3.613,3.613,0,0,0,3.334,1.828c1.549,1.807,3.979,1.807,6.367.581a2.13,2.13,0,0,0,.237.215c-1.463,4.775-4.323,13.185-3.227,13.185s2.452-7.873,3.355-13.057a3.861,3.861,0,0,0,5.141.258,6.818,6.818,0,0,0,6.109,1.958c-1.484,4.754-3.42,10.841-2.474,10.841s2.108-5.958,2.99-10.949a4.243,4.243,0,0,0,5.442.6,4.573,4.573,0,0,0,7.313-2.474,2.842,2.842,0,0,0,3.334-.753c-1.4,4.689-4.431,13.573-3.313,13.573,1.162,0,2.624-8.712,3.506-13.831,2.581.688,4.323-.473,4.388-2,0-1.226-2.431-2.452-4.237-2.431-1.312-3.054-4.259-6.109-7.959-6.625-1.2-1.893-3.012-3.162-5.335-2.474a6.925,6.925,0,0,0-9.1,0ZM118.442,89.463c-1.2,4.259-4.237,12.175-3.033,12.175S117.56,94.432,118.442,89.463Zm17.595,2.431c-1.226,4.259-4.861,14.627-3.635,14.627C133.606,106.52,135.155,96.862,136.037,91.893Zm14.562,0c-1.226,4.259-4.861,14.627-3.656,14.627C148.168,106.52,149.717,96.862,150.6,91.893Zm6.066,0c-1.226,4.259-4.861,14.627-3.656,14.627C154.234,106.52,155.783,96.862,156.665,91.893Zm-35.19,1.226c-1.2,4.259-4.861,14.605-3.635,14.605C119.044,107.724,120.593,98.088,121.475,93.119Zm8.5,0c-1.226,4.259-4.861,14.605-3.635,14.605C127.541,107.724,129.089,98.088,129.971,93.119Zm13.336,1.2c-1.2,4.281-4.84,14.627-3.635,14.627S142.447,99.314,143.307,94.324Z" transform="translate(-114.764 -61.599)" fill="#fff"/>
</svg>
